<svg version="1.1" id="Layer_1" xmlns="http://www.w3.org/2000/svg" xmlns:xlink="http://www.w3.org/1999/xlink" x="0px" y="0px"
	 width="100%" viewBox="0 0 500 500" enable-background="new 0 0 500 500" xml:space="preserve">
<path fill="#FFFFFE" opacity="1.000000" stroke="none" 
	d="
M1.000004,493.000000 
	C1.000000,331.308411 1.000000,169.616852 1.262672,7.785304 
	C3.350230,5.430220 5.175115,3.215110 7.000000,1.000000 
	C168.358231,1.000000 329.716461,1.000000 491.714752,1.294274 
	C495.236542,4.392367 498.118256,7.196186 501.000000,10.000002 
	C501.000000,170.691574 501.000000,331.383148 500.637451,492.456970 
	C498.183289,495.559509 496.091644,498.279755 494.000000,501.000000 
	C332.308411,501.000000 170.616852,501.000000 8.678677,500.683716 
	C5.954720,497.911621 3.477364,495.455811 1.000004,493.000000 
M486.001221,97.500000 
	C486.001221,70.404167 486.001221,43.308342 486.001221,16.286238 
	C329.022156,16.286238 172.618881,16.286238 16.286076,16.286238 
	C16.286076,172.978394 16.286076,329.381561 16.286076,485.715393 
	C172.978867,485.715393 329.382355,485.715393 486.001221,485.715393 
	C486.001221,356.450867 486.001221,227.475433 486.001221,97.500000 
z"/>
<path fill="#101015" opacity="1.000000" stroke="none" 
	d="
M501.000000,9.508954 
	C498.118256,7.196186 495.236542,4.392367 492.177399,1.294274 
	C494.917358,1.000000 497.834717,1.000000 501.000000,1.000000 
	C501.000000,3.670005 501.000000,6.343954 501.000000,9.508954 
z"/>
<path fill="#0D0D12" opacity="1.000000" stroke="none" 
	d="
M1.000004,493.494751 
	C3.477364,495.455811 5.954720,497.911621 8.216038,500.683716 
	C5.745432,501.000000 3.490865,501.000000 1.000000,501.000000 
	C1.000000,498.665680 1.000000,496.327576 1.000004,493.494751 
z"/>
<path fill="#111117" opacity="1.000000" stroke="none" 
	d="
M494.497925,501.000000 
	C496.091644,498.279755 498.183289,495.559509 500.637451,492.919617 
	C501.000000,495.575470 501.000000,498.150970 501.000000,501.000000 
	C499.002350,501.000000 496.999084,501.000000 494.497925,501.000000 
z"/>
<path fill="#030304" opacity="1.000000" stroke="none" 
	d="
M6.500528,1.000000 
	C5.175115,3.215110 3.350230,5.430220 1.262672,7.322665 
	C1.000000,5.086773 1.000000,3.173546 1.000000,1.000000 
	C2.663430,1.000000 4.332244,1.000000 6.500528,1.000000 
z"/>
<path fill="#000001" opacity="1.000000" stroke="none" 
	d="
M486.001221,98.000000 
	C486.001221,227.475433 486.001221,356.450867 486.001221,485.715393 
	C329.382355,485.715393 172.978867,485.715393 16.286076,485.715393 
	C16.286076,329.381561 16.286076,172.978394 16.286076,16.286238 
	C172.618881,16.286238 329.022156,16.286238 486.001221,16.286238 
	C486.001221,43.308342 486.001221,70.404167 486.001221,98.000000 
M417.532013,266.891846 
	C418.363617,261.644379 419.885986,256.400726 419.915161,251.148773 
	C420.110504,215.993469 420.218750,180.833923 419.841827,145.681244 
	C419.711456,133.522736 416.312317,122.000343 408.219635,112.399338 
	C398.252441,100.574402 384.830719,96.062988 370.047852,95.870918 
	C335.896698,95.427216 301.738098,95.525436 267.582428,95.497505 
	C262.559601,95.493401 260.921478,97.562683 260.920532,103.268272 
	C260.904572,201.245087 260.902496,299.221893 260.917847,397.198700 
	C260.918915,404.157471 262.373566,405.527893 269.557373,405.550232 
	C280.887939,405.585449 292.218658,405.585907 303.549286,405.564667 
	C312.564026,405.547760 313.738556,404.314880 313.738861,395.062378 
	C313.739807,366.902344 313.738647,338.742340 313.738373,310.582306 
	C313.738342,307.799103 313.738342,305.015900 313.738342,302.194641 
	C322.905151,302.194641 331.625397,302.194641 340.384399,302.194641 
	C348.962494,334.609406 357.532623,366.694702 365.875977,398.838806 
	C367.153900,403.762115 369.734039,405.678711 374.660370,405.620453 
	C387.155304,405.472717 399.653442,405.623077 412.149628,405.543152 
	C418.226074,405.504272 419.863800,403.288269 418.329926,397.320129 
	C415.436035,386.060486 412.460938,374.821625 409.498505,363.579651 
	C403.666412,341.447998 397.819946,319.320129 391.920715,296.968262 
	C405.039429,291.047607 413.380493,281.248169 417.532013,266.891846 
M140.678619,405.578033 
	C157.502121,405.379272 174.384216,405.990479 191.134399,404.778442 
	C212.485413,403.233551 228.461777,391.941437 233.970261,370.615417 
	C235.820724,363.451416 236.698669,355.857880 236.780518,348.446960 
	C237.097000,319.789246 236.931168,291.125977 236.905212,262.464813 
	C236.895889,252.171799 233.873077,248.101852 224.111038,244.917511 
	C195.702545,235.650742 167.295792,226.378677 138.883698,217.122986 
	C136.727432,216.420547 134.488174,216.340424 134.524979,212.904861 
	C134.710587,195.577560 134.455215,178.244431 134.740356,160.919724 
	C134.886169,152.059128 140.096100,147.227478 148.991165,146.952194 
	C155.317413,146.756378 161.654160,146.809052 167.985001,146.872299 
	C179.259872,146.984955 183.943314,151.726898 184.025833,163.132126 
	C184.094543,172.629837 184.055893,182.128403 184.042313,191.626572 
	C184.035889,196.115585 186.283096,198.527557 190.724777,198.549332 
	C203.888519,198.613846 217.052856,198.560898 230.216949,198.546967 
	C234.446411,198.542480 236.919617,196.453842 236.863892,192.189850 
	C236.633255,174.540390 237.102493,156.828323 235.746872,139.260223 
	C233.952301,116.003738 218.731949,99.193893 195.579956,97.225365 
	C172.444199,95.258217 148.999298,95.584526 125.762894,96.590714 
	C108.828781,97.323990 95.465240,106.033600 87.681755,121.772156 
	C83.637596,129.949631 81.880798,138.727036 81.872818,147.839066 
	C81.846123,178.333145 81.839050,208.827240 81.831741,239.321335 
	C81.828827,251.504486 83.855011,254.255692 95.398254,258.082611 
	C124.844505,267.844879 154.282410,277.632324 183.905991,287.470245 
	C183.905991,305.723022 184.177643,323.868622 183.775986,341.999329 
	C183.608887,349.542328 178.861176,353.635498 171.123886,354.145294 
	C165.314682,354.528076 159.469055,354.413239 153.639511,354.421112 
	C138.522278,354.441528 134.603622,350.551880 134.585464,335.602539 
	C134.575134,327.104156 134.684128,318.604126 134.544052,310.108032 
	C134.452393,304.546967 132.943146,303.032898 127.868195,303.014557 
	C114.704224,302.966980 101.539612,303.054871 88.376015,302.970459 
	C84.013786,302.942505 81.824280,304.865662 81.839363,309.215942 
	C81.894821,325.211853 81.256516,341.250397 82.212906,357.192902 
	C83.460014,377.981201 92.296661,394.680756 113.243683,401.617157 
	C121.592369,404.381714 130.869949,404.341095 140.678619,405.578033 
z"/>
<path fill="#FDFDFD" opacity="1.000000" stroke="none" 
	d="
M417.374023,267.264587 
	C413.380493,281.248169 405.039429,291.047607 391.920715,296.968262 
	C397.819946,319.320129 403.666412,341.447998 409.498505,363.579651 
	C412.460938,374.821625 415.436035,386.060486 418.329926,397.320129 
	C419.863800,403.288269 418.226074,405.504272 412.149628,405.543152 
	C399.653442,405.623077 387.155304,405.472717 374.660370,405.620453 
	C369.734039,405.678711 367.153900,403.762115 365.875977,398.838806 
	C357.532623,366.694702 348.962494,334.609406 340.384399,302.194641 
	C331.625397,302.194641 322.905151,302.194641 313.738342,302.194641 
	C313.738342,305.015900 313.738342,307.799103 313.738373,310.582306 
	C313.738647,338.742340 313.739807,366.902344 313.738861,395.062378 
	C313.738556,404.314880 312.564026,405.547760 303.549286,405.564667 
	C292.218658,405.585907 280.887939,405.585449 269.557373,405.550232 
	C262.373566,405.527893 260.918915,404.157471 260.917847,397.198700 
	C260.902496,299.221893 260.904572,201.245087 260.920532,103.268272 
	C260.921478,97.562683 262.559601,95.493401 267.582428,95.497505 
	C301.738098,95.525436 335.896698,95.427216 370.047852,95.870918 
	C384.830719,96.062988 398.252441,100.574402 408.219635,112.399338 
	C416.312317,122.000343 419.711456,133.522736 419.841827,145.681244 
	C420.218750,180.833923 420.110504,215.993469 419.915161,251.148773 
	C419.885986,256.400726 418.363617,261.644379 417.374023,267.264587 
M367.413391,183.500214 
	C367.383850,176.169861 367.595551,168.828659 367.265839,161.511826 
	C366.818604,151.587463 361.987823,147.053452 352.102051,146.888214 
	C345.105957,146.771271 338.106415,146.859512 331.108429,146.857849 
	C325.346832,146.856461 319.585236,146.857559 314.075562,146.857559 
	C314.075562,181.783417 314.075562,216.033890 314.075562,250.430725 
	C326.243774,250.430725 338.066711,250.473602 349.889221,250.419220 
	C362.883820,250.359467 367.336548,245.951370 367.392578,232.986282 
	C367.462402,216.824539 367.411987,200.662277 367.413391,183.500214 
z"/>
<path fill="#FDFDFD" opacity="1.000000" stroke="none" 
	d="
M140.201660,405.577759 
	C130.869949,404.341095 121.592369,404.381714 113.243683,401.617157 
	C92.296661,394.680756 83.460014,377.981201 82.212906,357.192902 
	C81.256516,341.250397 81.894821,325.211853 81.839363,309.215942 
	C81.824280,304.865662 84.013786,302.942505 88.376015,302.970459 
	C101.539612,303.054871 114.704224,302.966980 127.868195,303.014557 
	C132.943146,303.032898 134.452393,304.546967 134.544052,310.108032 
	C134.684128,318.604126 134.575134,327.104156 134.585464,335.602539 
	C134.603622,350.551880 138.522278,354.441528 153.639511,354.421112 
	C159.469055,354.413239 165.314682,354.528076 171.123886,354.145294 
	C178.861176,353.635498 183.608887,349.542328 183.775986,341.999329 
	C184.177643,323.868622 183.905991,305.723022 183.905991,287.470245 
	C154.282410,277.632324 124.844505,267.844879 95.398254,258.082611 
	C83.855011,254.255692 81.828827,251.504486 81.831741,239.321335 
	C81.839050,208.827240 81.846123,178.333145 81.872818,147.839066 
	C81.880798,138.727036 83.637596,129.949631 87.681755,121.772156 
	C95.465240,106.033600 108.828781,97.323990 125.762894,96.590714 
	C148.999298,95.584526 172.444199,95.258217 195.579956,97.225365 
	C218.731949,99.193893 233.952301,116.003738 235.746872,139.260223 
	C237.102493,156.828323 236.633255,174.540390 236.863892,192.189850 
	C236.919617,196.453842 234.446411,198.542480 230.216949,198.546967 
	C217.052856,198.560898 203.888519,198.613846 190.724777,198.549332 
	C186.283096,198.527557 184.035889,196.115585 184.042313,191.626572 
	C184.055893,182.128403 184.094543,172.629837 184.025833,163.132126 
	C183.943314,151.726898 179.259872,146.984955 167.985001,146.872299 
	C161.654160,146.809052 155.317413,146.756378 148.991165,146.952194 
	C140.096100,147.227478 134.886169,152.059128 134.740356,160.919724 
	C134.455215,178.244431 134.710587,195.577560 134.524979,212.904861 
	C134.488174,216.340424 136.727432,216.420547 138.883698,217.122986 
	C167.295792,226.378677 195.702545,235.650742 224.111038,244.917511 
	C233.873077,248.101852 236.895889,252.171799 236.905212,262.464813 
	C236.931168,291.125977 237.097000,319.789246 236.780518,348.446960 
	C236.698669,355.857880 235.820724,363.451416 233.970261,370.615417 
	C228.461777,391.941437 212.485413,403.233551 191.134399,404.778442 
	C174.384216,405.990479 157.502121,405.379272 140.201660,405.577759 
z"/>
<path fill="#000000" opacity="1.000000" stroke="none" 
	d="
M367.413452,184.000214 
	C367.411987,200.662277 367.462402,216.824539 367.392578,232.986282 
	C367.336548,245.951370 362.883820,250.359467 349.889221,250.419220 
	C338.066711,250.473602 326.243774,250.430725 314.075562,250.430725 
	C314.075562,216.033890 314.075562,181.783417 314.075562,146.857559 
	C319.585236,146.857559 325.346832,146.856461 331.108429,146.857849 
	C338.106415,146.859512 345.105957,146.771271 352.102051,146.888214 
	C361.987823,147.053452 366.818604,151.587463 367.265839,161.511826 
	C367.595551,168.828659 367.383850,176.169861 367.413452,184.000214 
z"/>
</svg>